<svg width="186" height="42" viewBox="0 0 186 42" fill="none" xmlns="http://www.w3.org/2000/svg">
<g id="Group 16">
<g id="&#240;&#159;&#166;&#134; icon &#34;ellipses&#34;">
<path id="Vector" d="M144 16V25.3851H154.5V16H144ZM159.75 16V25.3851H170.25V16H159.75ZM175.5 16V25.3851H186V16H175.5Z" fill="#818281"/>
</g>
<g id="&#240;&#159;&#166;&#134; icon &#34;play circle&#34;">
<path id="Vector_2" d="M21 0C9.3975 0 0 9.3975 0 21C0 32.6025 9.3975 42 21 42C32.6025 42 42 32.6025 42 21C42 9.3975 32.6025 0 21 0ZM15.75 10.5L31.5 21L15.75 31.5V10.5Z" fill="#1DB954"/>
</g>
<g id="&#240;&#159;&#166;&#134; icon &#34;heart&#34;">
<path id="Vector_3" d="M78.5 0C75.6125 0 73.04 1.41642 71.0975 3.63343C69.2075 5.85044 68 8.86804 68 12.3167C68 15.7038 69.2075 18.7214 71.0975 21L89 42L106.903 21C108.792 18.783 110 15.7654 110 12.3167C110 8.92962 108.792 5.91202 106.903 3.63343C105.013 1.41642 102.44 0 99.5 0C96.6125 0 94.04 1.41642 92.0975 3.63343C90.2075 5.85044 89 8.86804 89 12.3167C89 8.92962 87.7925 5.91202 85.9025 3.63343C84.0125 1.41642 81.44 0 78.5 0Z" fill="#1DB954"/>
</g>
</g>
</svg>
