<svg width="160" height="30" viewBox="0 0 160 30" fill="none" xmlns="http://www.w3.org/2000/svg">
<path d="M52.0014 10.5653C51.9332 9.87784 51.6406 9.34375 51.1236 8.96307C50.6065 8.58239 49.9048 8.39204 49.0185 8.39204C48.4162 8.39204 47.9077 8.47727 47.4929 8.64773C47.0781 8.8125 46.7599 9.04261 46.5384 9.33807C46.3224 9.63352 46.2145 9.96875 46.2145 10.3438C46.2031 10.6562 46.2685 10.929 46.4105 11.1619C46.5582 11.3949 46.7599 11.5966 47.0156 11.767C47.2713 11.9318 47.5668 12.0767 47.902 12.2017C48.2372 12.321 48.5952 12.4233 48.9759 12.5085L50.544 12.8835C51.3054 13.054 52.0043 13.2812 52.6406 13.5653C53.277 13.8494 53.8281 14.1989 54.294 14.6136C54.7599 15.0284 55.1207 15.517 55.3764 16.0795C55.6378 16.642 55.7713 17.2869 55.777 18.0142C55.7713 19.0824 55.4986 20.0085 54.9588 20.7926C54.4247 21.571 53.652 22.1761 52.6406 22.608C51.6349 23.0341 50.4219 23.2472 49.0014 23.2472C47.5923 23.2472 46.3651 23.0312 45.3196 22.5994C44.2798 22.1676 43.4673 21.5284 42.8821 20.6818C42.3026 19.8295 41.9986 18.7756 41.9702 17.5199H45.5412C45.581 18.1051 45.7486 18.5937 46.044 18.9858C46.3452 19.3722 46.7457 19.6648 47.2457 19.8636C47.7514 20.0568 48.3224 20.1534 48.9588 20.1534C49.5838 20.1534 50.1264 20.0625 50.5866 19.8807C51.0526 19.6989 51.4134 19.446 51.669 19.1222C51.9247 18.7983 52.0526 18.4261 52.0526 18.0057C52.0526 17.6136 51.9361 17.2841 51.7031 17.017C51.4759 16.75 51.1406 16.5227 50.6974 16.3352C50.2599 16.1477 49.723 15.9773 49.0866 15.8239L47.1861 15.3466C45.7145 14.9886 44.5526 14.429 43.7003 13.6676C42.848 12.9062 42.4247 11.8807 42.4304 10.5909C42.4247 9.53409 42.706 8.6108 43.2741 7.82102C43.848 7.03125 44.6349 6.41477 45.6349 5.97159C46.6349 5.52841 47.7713 5.30682 49.044 5.30682C50.3395 5.30682 51.4702 5.52841 52.4361 5.97159C53.4077 6.41477 54.1634 7.03125 54.7031 7.82102C55.2429 8.6108 55.5213 9.52557 55.5384 10.5653H52.0014ZM58.1911 27.9091V9.90909H61.7706V12.108H61.9325C62.0916 11.7557 62.3217 11.3977 62.6229 11.0341C62.9297 10.6648 63.3274 10.358 63.8161 10.1136C64.3104 9.86364 64.924 9.73864 65.657 9.73864C66.6115 9.73864 67.4922 9.98864 68.299 10.4886C69.1058 10.983 69.7507 11.7301 70.2337 12.7301C70.7166 13.7244 70.9581 14.9716 70.9581 16.4716C70.9581 17.9318 70.7223 19.1648 70.2507 20.1705C69.7848 21.1705 69.1484 21.929 68.3416 22.446C67.5405 22.9574 66.6428 23.2131 65.6484 23.2131C64.9439 23.2131 64.3445 23.0966 63.8501 22.8636C63.3615 22.6307 62.9609 22.3381 62.6484 21.9858C62.3359 21.6278 62.0973 21.267 61.9325 20.9034H61.8217V27.9091H58.1911ZM61.745 16.4545C61.745 17.233 61.853 17.9119 62.0689 18.4915C62.2848 19.071 62.5973 19.5227 63.0064 19.8466C63.4155 20.1648 63.9126 20.3239 64.4979 20.3239C65.0888 20.3239 65.5888 20.1619 65.9979 19.8381C66.407 19.5085 66.7166 19.054 66.9268 18.4744C67.1428 17.8892 67.2507 17.2159 67.2507 16.4545C67.2507 15.6989 67.1456 15.0341 66.9354 14.4602C66.7251 13.8864 66.4155 13.4375 66.0064 13.1136C65.5973 12.7898 65.0945 12.6278 64.4979 12.6278C63.907 12.6278 63.407 12.7841 62.9979 13.0966C62.5945 13.4091 62.2848 13.8523 62.0689 14.4261C61.853 15 61.745 15.6761 61.745 16.4545ZM79.2933 23.2557C77.9695 23.2557 76.8246 22.9744 75.8587 22.4119C74.8984 21.8437 74.157 21.054 73.6342 20.0426C73.1115 19.0256 72.8501 17.8466 72.8501 16.5057C72.8501 15.1534 73.1115 13.9716 73.6342 12.9602C74.157 11.9432 74.8984 11.1534 75.8587 10.5909C76.8246 10.0227 77.9695 9.73864 79.2933 9.73864C80.6172 9.73864 81.7592 10.0227 82.7195 10.5909C83.6854 11.1534 84.4297 11.9432 84.9524 12.9602C85.4751 13.9716 85.7365 15.1534 85.7365 16.5057C85.7365 17.8466 85.4751 19.0256 84.9524 20.0426C84.4297 21.054 83.6854 21.8437 82.7195 22.4119C81.7592 22.9744 80.6172 23.2557 79.2933 23.2557ZM79.3104 20.4432C79.9126 20.4432 80.4155 20.2727 80.8189 19.9318C81.2223 19.5852 81.5263 19.1136 81.7308 18.517C81.9411 17.9205 82.0462 17.2415 82.0462 16.4801C82.0462 15.7188 81.9411 15.0398 81.7308 14.4432C81.5263 13.8466 81.2223 13.375 80.8189 13.0284C80.4155 12.6818 79.9126 12.5085 79.3104 12.5085C78.7024 12.5085 78.1911 12.6818 77.7763 13.0284C77.3672 13.375 77.0575 13.8466 76.8473 14.4432C76.6428 15.0398 76.5405 15.7188 76.5405 16.4801C76.5405 17.2415 76.6428 17.9205 76.8473 18.517C77.0575 19.1136 77.3672 19.5852 77.7763 19.9318C78.1911 20.2727 78.7024 20.4432 79.3104 20.4432ZM95.0604 9.90909V12.6364H87.1768V9.90909H95.0604ZM88.9666 6.77273H92.5973V18.9773C92.5973 19.3125 92.6484 19.5739 92.7507 19.7614C92.853 19.9432 92.995 20.071 93.1768 20.1449C93.3643 20.2187 93.5803 20.2557 93.8246 20.2557C93.995 20.2557 94.1655 20.2415 94.3359 20.2131C94.5064 20.179 94.6371 20.1534 94.728 20.1364L95.299 22.8381C95.1172 22.8949 94.8615 22.9602 94.532 23.0341C94.2024 23.1136 93.8018 23.1619 93.3303 23.179C92.4553 23.2131 91.6882 23.0966 91.0291 22.8295C90.3757 22.5625 89.8672 22.1477 89.5036 21.5852C89.1399 21.0227 88.9609 20.3125 88.9666 19.4545V6.77273ZM97.4254 23V9.90909H101.056V23H97.4254ZM99.2493 8.22159C98.7095 8.22159 98.2464 8.04261 97.8601 7.68466C97.4794 7.32102 97.2891 6.88636 97.2891 6.38068C97.2891 5.88068 97.4794 5.4517 97.8601 5.09375C98.2464 4.73011 98.7095 4.54829 99.2493 4.54829C99.7891 4.54829 100.249 4.73011 100.63 5.09375C101.016 5.4517 101.21 5.88068 101.21 6.38068C101.21 6.88636 101.016 7.32102 100.63 7.68466C100.249 8.04261 99.7891 8.22159 99.2493 8.22159ZM114.857 13.642L111.533 13.8466C111.476 13.5625 111.354 13.3068 111.166 13.0795C110.979 12.8466 110.732 12.6619 110.425 12.5256C110.124 12.3835 109.763 12.3125 109.342 12.3125C108.78 12.3125 108.305 12.4318 107.919 12.6705C107.533 12.9034 107.339 13.2159 107.339 13.608C107.339 13.9205 107.464 14.1847 107.714 14.4006C107.964 14.6165 108.393 14.7898 109.001 14.9205L111.371 15.3977C112.643 15.6591 113.592 16.0795 114.217 16.6591C114.842 17.2386 115.155 18 115.155 18.9432C115.155 19.8011 114.902 20.554 114.396 21.2017C113.896 21.8494 113.209 22.3551 112.334 22.7188C111.464 23.0767 110.462 23.2557 109.325 23.2557C107.592 23.2557 106.212 22.8949 105.183 22.1733C104.161 21.446 103.561 20.4574 103.385 19.2074L106.956 19.0199C107.064 19.5483 107.325 19.9517 107.74 20.2301C108.155 20.5028 108.686 20.6392 109.334 20.6392C109.97 20.6392 110.482 20.517 110.868 20.2727C111.26 20.0227 111.459 19.7017 111.464 19.3097C111.459 18.9801 111.32 18.7102 111.047 18.5C110.774 18.2841 110.354 18.1193 109.786 18.0057L107.518 17.554C106.24 17.2983 105.288 16.8551 104.663 16.2244C104.044 15.5937 103.734 14.7898 103.734 13.8125C103.734 12.9716 103.962 12.2472 104.416 11.6392C104.876 11.0312 105.521 10.5625 106.351 10.233C107.186 9.90341 108.163 9.73864 109.283 9.73864C110.936 9.73864 112.237 10.0881 113.186 10.7869C114.141 11.4858 114.697 12.4375 114.857 13.642ZM124.404 9.90909V12.6364H116.521V9.90909H124.404ZM118.31 6.77273H121.941V18.9773C121.941 19.3125 121.992 19.5739 122.094 19.7614C122.197 19.9432 122.339 20.071 122.521 20.1449C122.708 20.2187 122.924 20.2557 123.168 20.2557C123.339 20.2557 123.509 20.2415 123.68 20.2131C123.85 20.179 123.981 20.1534 124.072 20.1364L124.643 22.8381C124.461 22.8949 124.205 22.9602 123.876 23.0341C123.546 23.1136 123.146 23.1619 122.674 23.179C121.799 23.2131 121.032 23.0966 120.373 22.8295C119.719 22.5625 119.211 22.1477 118.847 21.5852C118.484 21.0227 118.305 20.3125 118.31 19.4545V6.77273ZM132.594 23.2557C131.248 23.2557 130.089 22.983 129.117 22.4375C128.151 21.8864 127.407 21.108 126.884 20.1023C126.362 19.0909 126.1 17.8949 126.1 16.5142C126.1 15.1676 126.362 13.9858 126.884 12.9688C127.407 11.9517 128.143 11.1591 129.092 10.5909C130.046 10.0227 131.165 9.73864 132.45 9.73864C133.313 9.73864 134.117 9.87784 134.862 10.1562C135.612 10.429 136.265 10.8409 136.822 11.392C137.384 11.9432 137.822 12.6364 138.134 13.4716C138.447 14.3011 138.603 15.2727 138.603 16.3864V17.3835H127.549V15.1335H135.185C135.185 14.6108 135.072 14.1477 134.844 13.7443C134.617 13.3409 134.302 13.0256 133.898 12.7983C133.501 12.5653 133.038 12.4489 132.509 12.4489C131.958 12.4489 131.469 12.5767 131.043 12.8324C130.623 13.0824 130.293 13.4205 130.055 13.8466C129.816 14.267 129.694 14.7358 129.688 15.2528V17.392C129.688 18.0398 129.808 18.5994 130.046 19.071C130.29 19.5426 130.634 19.9062 131.077 20.1619C131.521 20.4176 132.046 20.5455 132.654 20.5455C133.058 20.5455 133.427 20.4886 133.762 20.375C134.097 20.2614 134.384 20.0909 134.623 19.8636C134.862 19.6364 135.043 19.358 135.168 19.0284L138.526 19.25C138.356 20.0568 138.006 20.7614 137.478 21.3636C136.955 21.9602 136.279 22.4261 135.45 22.7614C134.626 23.0909 133.674 23.2557 132.594 23.2557ZM144.705 23.2472C143.87 23.2472 143.126 23.1023 142.472 22.8125C141.819 22.517 141.302 22.0824 140.921 21.5085C140.546 20.929 140.359 20.2074 140.359 19.3438C140.359 18.6165 140.492 18.0057 140.759 17.5114C141.026 17.017 141.39 16.6193 141.85 16.3182C142.31 16.017 142.833 15.7898 143.418 15.6364C144.009 15.483 144.629 15.375 145.276 15.3125C146.038 15.233 146.651 15.1591 147.117 15.0909C147.583 15.017 147.921 14.9091 148.131 14.767C148.342 14.625 148.447 14.4148 148.447 14.1364V14.0852C148.447 13.5455 148.276 13.1278 147.935 12.8324C147.6 12.5369 147.123 12.3892 146.504 12.3892C145.85 12.3892 145.33 12.5341 144.944 12.8239C144.558 13.108 144.302 13.4659 144.177 13.8977L140.819 13.625C140.989 12.8295 141.325 12.142 141.825 11.5625C142.325 10.9773 142.969 10.5284 143.759 10.2159C144.555 9.89773 145.475 9.73864 146.521 9.73864C147.248 9.73864 147.944 9.82386 148.609 9.99432C149.279 10.1648 149.873 10.429 150.39 10.7869C150.913 11.1449 151.325 11.6051 151.626 12.1676C151.927 12.7244 152.077 13.392 152.077 14.1705V23H148.634V21.1847H148.532C148.322 21.5938 148.04 21.9545 147.688 22.267C147.336 22.5739 146.913 22.8153 146.418 22.9915C145.924 23.1619 145.353 23.2472 144.705 23.2472ZM145.745 20.7415C146.279 20.7415 146.751 20.6364 147.16 20.4261C147.569 20.2102 147.89 19.9205 148.123 19.5568C148.356 19.1932 148.472 18.7812 148.472 18.321V16.9318C148.359 17.0057 148.202 17.0739 148.004 17.1364C147.81 17.1932 147.592 17.2472 147.347 17.2983C147.103 17.3437 146.859 17.3864 146.614 17.4261C146.37 17.4602 146.148 17.4915 145.95 17.5199C145.523 17.5824 145.151 17.6818 144.833 17.8182C144.515 17.9545 144.268 18.1392 144.092 18.3722C143.915 18.5994 143.827 18.8835 143.827 19.2244C143.827 19.7188 144.006 20.0966 144.364 20.358C144.728 20.6136 145.188 20.7415 145.745 20.7415ZM158.525 5.54545V23H154.894V5.54545H158.525Z" fill="#1DB954"/>
<path d="M30 0C11.25 0 7.5 3.75 7.5 3.75V19.0875C6.9375 18.9 6.2625 18.75 5.625 18.75C2.5125 18.75 0 21.2625 0 24.375C0 27.4875 2.5125 30 5.625 30C8.7375 30 11.25 27.4875 11.25 24.375V9.4875C13.9875 8.625 18.7125 7.8375 26.25 7.6125V15.3375C25.6875 15.15 25.0125 15 24.375 15C21.2625 15 18.75 17.5125 18.75 20.625C18.75 23.7375 21.2625 26.25 24.375 26.25C27.4875 26.25 30 23.7375 30 20.625V0Z" fill="#1DB954"/>
</svg>
