<svg width="55" height="59" viewBox="0 0 55 59" fill="none" xmlns="http://www.w3.org/2000/svg">
<g id="&#240;&#159;&#166;&#134; icon &#34;musical note&#34;">
<path id="Vector" d="M54.1828 0.391663C20.7755 0.391663 14.0941 7.62327 14.0941 7.62327V37.2006C13.0919 36.839 11.8892 36.5497 10.7534 36.5497C5.20777 36.5497 0.731201 41.3949 0.731201 47.3971C0.731201 53.3994 5.20777 58.2445 10.7534 58.2445C16.299 58.2445 20.7755 53.3994 20.7755 47.3971V18.6876C25.653 17.0244 34.0716 15.5057 47.5013 15.0718V29.969C46.4991 29.6074 45.2964 29.3181 44.1606 29.3181C38.615 29.3181 34.1384 34.1633 34.1384 40.1655C34.1384 46.1678 38.615 51.0129 44.1606 51.0129C49.7062 51.0129 54.1828 46.1678 54.1828 40.1655V0.391663Z" fill="#1DB954"/>
</g>
</svg>
