<svg width="42" height="42" viewBox="0 0 42 42" fill="none" xmlns="http://www.w3.org/2000/svg">
<g id="&#240;&#159;&#166;&#134; icon &#34;heart&#34;">
<path id="Vector" d="M10.5 0C7.6125 0 5.04 1.41642 3.0975 3.63343C1.2075 5.85044 0 8.86804 0 12.3167C0 15.7038 1.2075 18.7214 3.0975 21L21 42L38.9025 21C40.7925 18.783 42 15.7654 42 12.3167C42 8.92962 40.7925 5.91202 38.9025 3.63343C37.0125 1.41642 34.44 0 31.5 0C28.6125 0 26.04 1.41642 24.0975 3.63343C22.2075 5.85044 21 8.86804 21 12.3167C21 8.92962 19.7925 5.91202 17.9025 3.63343C16.0125 1.41642 13.44 0 10.5 0Z" fill="#1DB954"/>
</g>
</svg>
